<mxfile host="Electron" agent="Mozilla/5.0 (Windows NT 10.0; Win64; x64) AppleWebKit/537.36 (KHTML, like Gecko) draw.io/24.7.8 Chrome/128.0.6613.36 Electron/32.0.1 Safari/537.36" version="24.7.8" pages="2">
  <diagram name="Page-1" id="11tmcn0X_ArbEpnLQ9vh">
    <mxGraphModel dx="1501" dy="769" grid="1" gridSize="10" guides="1" tooltips="1" connect="1" arrows="1" fold="1" page="1" pageScale="1" pageWidth="850" pageHeight="1100" math="0" shadow="0">
      <root>
        <mxCell id="0" />
        <mxCell id="1" parent="0" />
        <mxCell id="Fumb5T83iDv_LNImduv7-1" value="&lt;font style=&quot;font-size: 18px;&quot;&gt;User&lt;/font&gt;" style="whiteSpace=wrap;html=1;align=center;" parent="1" vertex="1">
          <mxGeometry x="80" y="110" width="130" height="50" as="geometry" />
        </mxCell>
        <mxCell id="Fumb5T83iDv_LNImduv7-3" value="&lt;font style=&quot;font-size: 18px;&quot;&gt;Programmer&lt;/font&gt;" style="whiteSpace=wrap;html=1;align=center;" parent="1" vertex="1">
          <mxGeometry x="360" y="670" width="130" height="50" as="geometry" />
        </mxCell>
        <mxCell id="Fumb5T83iDv_LNImduv7-4" value="&lt;font style=&quot;font-size: 18px;&quot;&gt;Warga Sekitar&lt;/font&gt;" style="whiteSpace=wrap;html=1;align=center;" parent="1" vertex="1">
          <mxGeometry x="640" y="110" width="130" height="50" as="geometry" />
        </mxCell>
        <mxCell id="Fumb5T83iDv_LNImduv7-5" value="&lt;font style=&quot;font-size: 18px;&quot;&gt;Developer&lt;/font&gt;" style="whiteSpace=wrap;html=1;align=center;" parent="1" vertex="1">
          <mxGeometry x="360" y="410" width="130" height="50" as="geometry" />
        </mxCell>
        <mxCell id="Fumb5T83iDv_LNImduv7-9" value="&lt;font style=&quot;font-size: 16px;&quot;&gt;Input data&lt;/font&gt;" style="shape=rhombus;perimeter=rhombusPerimeter;whiteSpace=wrap;html=1;align=center;" parent="1" vertex="1">
          <mxGeometry x="335" y="130" width="180" height="80" as="geometry" />
        </mxCell>
        <mxCell id="Fumb5T83iDv_LNImduv7-10" value="" style="edgeStyle=entityRelationEdgeStyle;fontSize=12;html=1;endArrow=ERoneToMany;rounded=0;exitX=0;exitY=0.5;exitDx=0;exitDy=0;entryX=1;entryY=0.25;entryDx=0;entryDy=0;" parent="1" source="Fumb5T83iDv_LNImduv7-9" target="Fumb5T83iDv_LNImduv7-1" edge="1">
          <mxGeometry width="100" height="100" relative="1" as="geometry">
            <mxPoint x="290" y="360" as="sourcePoint" />
            <mxPoint x="390" y="260" as="targetPoint" />
          </mxGeometry>
        </mxCell>
        <mxCell id="Fumb5T83iDv_LNImduv7-12" value="" style="edgeStyle=orthogonalEdgeStyle;fontSize=12;html=1;endArrow=ERoneToMany;rounded=0;entryX=1;entryY=0.25;entryDx=0;entryDy=0;exitX=1;exitY=0.5;exitDx=0;exitDy=0;" parent="1" source="Fumb5T83iDv_LNImduv7-9" target="Fumb5T83iDv_LNImduv7-5" edge="1">
          <mxGeometry width="100" height="100" relative="1" as="geometry">
            <mxPoint x="280" y="360" as="sourcePoint" />
            <mxPoint x="360" y="435" as="targetPoint" />
          </mxGeometry>
        </mxCell>
        <mxCell id="Fumb5T83iDv_LNImduv7-15" value="" style="edgeStyle=orthogonalEdgeStyle;fontSize=12;html=1;endArrow=ERoneToMany;rounded=0;entryX=0;entryY=0.2;entryDx=0;entryDy=0;exitX=0;exitY=0.5;exitDx=0;exitDy=0;elbow=vertical;entryPerimeter=0;" parent="1" source="Fumb5T83iDv_LNImduv7-9" target="Fumb5T83iDv_LNImduv7-5" edge="1">
          <mxGeometry width="100" height="100" relative="1" as="geometry">
            <mxPoint x="525" y="280" as="sourcePoint" />
            <mxPoint x="510" y="445" as="targetPoint" />
          </mxGeometry>
        </mxCell>
        <mxCell id="Fumb5T83iDv_LNImduv7-16" value="" style="edgeStyle=entityRelationEdgeStyle;fontSize=12;html=1;endArrow=ERoneToMany;rounded=0;entryX=0;entryY=0.25;entryDx=0;entryDy=0;exitX=1;exitY=0.5;exitDx=0;exitDy=0;" parent="1" source="Fumb5T83iDv_LNImduv7-9" target="Fumb5T83iDv_LNImduv7-4" edge="1">
          <mxGeometry width="100" height="100" relative="1" as="geometry">
            <mxPoint x="550" y="270" as="sourcePoint" />
            <mxPoint x="220" y="145" as="targetPoint" />
            <Array as="points">
              <mxPoint x="560" y="270" />
              <mxPoint x="600" y="200" />
            </Array>
          </mxGeometry>
        </mxCell>
        <mxCell id="Fumb5T83iDv_LNImduv7-18" value="&lt;span style=&quot;font-size: 16px;&quot;&gt;Survey&lt;/span&gt;" style="shape=rhombus;perimeter=rhombusPerimeter;whiteSpace=wrap;html=1;align=center;" parent="1" vertex="1">
          <mxGeometry x="335" y="250" width="180" height="80" as="geometry" />
        </mxCell>
        <mxCell id="Fumb5T83iDv_LNImduv7-19" value="&lt;font style=&quot;font-size: 16px;&quot;&gt;Perubahan Data&lt;/font&gt;" style="shape=rhombus;perimeter=rhombusPerimeter;whiteSpace=wrap;html=1;align=center;" parent="1" vertex="1">
          <mxGeometry x="55" y="395" width="180" height="80" as="geometry" />
        </mxCell>
        <mxCell id="Fumb5T83iDv_LNImduv7-20" value="" style="fontSize=12;html=1;endArrow=ERoneToMany;rounded=0;exitX=0.5;exitY=0;exitDx=0;exitDy=0;entryX=0.5;entryY=1;entryDx=0;entryDy=0;" parent="1" source="Fumb5T83iDv_LNImduv7-19" target="Fumb5T83iDv_LNImduv7-1" edge="1">
          <mxGeometry width="100" height="100" relative="1" as="geometry">
            <mxPoint x="440" y="340" as="sourcePoint" />
            <mxPoint x="340" y="440" as="targetPoint" />
          </mxGeometry>
        </mxCell>
        <mxCell id="Fumb5T83iDv_LNImduv7-21" value="" style="fontSize=12;html=1;endArrow=ERoneToMany;rounded=0;entryX=0;entryY=0.75;entryDx=0;entryDy=0;edgeStyle=entityRelationEdgeStyle;" parent="1" source="Fumb5T83iDv_LNImduv7-19" target="Fumb5T83iDv_LNImduv7-5" edge="1">
          <mxGeometry width="100" height="100" relative="1" as="geometry">
            <mxPoint x="155" y="405" as="sourcePoint" />
            <mxPoint x="155" y="170" as="targetPoint" />
          </mxGeometry>
        </mxCell>
        <mxCell id="Fumb5T83iDv_LNImduv7-24" value="&lt;span style=&quot;font-size: 16px;&quot;&gt;Software&lt;/span&gt;&lt;div&gt;&lt;span style=&quot;font-size: 16px;&quot;&gt;Maintenance&lt;/span&gt;&lt;/div&gt;" style="shape=rhombus;perimeter=rhombusPerimeter;whiteSpace=wrap;html=1;align=center;" parent="1" vertex="1">
          <mxGeometry x="335" y="520" width="180" height="80" as="geometry" />
        </mxCell>
        <mxCell id="Fumb5T83iDv_LNImduv7-25" value="" style="fontSize=12;html=1;endArrow=ERmandOne;rounded=0;entryX=0.5;entryY=0;entryDx=0;entryDy=0;exitX=0.5;exitY=1;exitDx=0;exitDy=0;" parent="1" source="Fumb5T83iDv_LNImduv7-24" target="Fumb5T83iDv_LNImduv7-3" edge="1">
          <mxGeometry width="100" height="100" relative="1" as="geometry">
            <mxPoint x="340" y="570" as="sourcePoint" />
            <mxPoint x="440" y="470" as="targetPoint" />
          </mxGeometry>
        </mxCell>
        <mxCell id="Fumb5T83iDv_LNImduv7-26" value="" style="fontSize=12;html=1;endArrow=ERoneToMany;rounded=0;exitX=0.5;exitY=0;exitDx=0;exitDy=0;entryX=0.5;entryY=1;entryDx=0;entryDy=0;" parent="1" source="Fumb5T83iDv_LNImduv7-24" target="Fumb5T83iDv_LNImduv7-5" edge="1">
          <mxGeometry width="100" height="100" relative="1" as="geometry">
            <mxPoint x="340" y="570" as="sourcePoint" />
            <mxPoint x="440" y="470" as="targetPoint" />
          </mxGeometry>
        </mxCell>
        <mxCell id="Fumb5T83iDv_LNImduv7-27" value="" style="edgeStyle=entityRelationEdgeStyle;fontSize=12;html=1;endArrow=ERoneToMany;rounded=0;entryX=1;entryY=0.75;entryDx=0;entryDy=0;" parent="1" source="Fumb5T83iDv_LNImduv7-18" target="Fumb5T83iDv_LNImduv7-1" edge="1">
          <mxGeometry width="100" height="100" relative="1" as="geometry">
            <mxPoint x="345" y="180" as="sourcePoint" />
            <mxPoint x="220" y="145" as="targetPoint" />
          </mxGeometry>
        </mxCell>
        <mxCell id="Fumb5T83iDv_LNImduv7-28" value="" style="edgeStyle=entityRelationEdgeStyle;fontSize=12;html=1;endArrow=ERoneToMany;rounded=0;entryX=0;entryY=0.75;entryDx=0;entryDy=0;exitX=1;exitY=0.5;exitDx=0;exitDy=0;" parent="1" source="Fumb5T83iDv_LNImduv7-18" target="Fumb5T83iDv_LNImduv7-4" edge="1">
          <mxGeometry width="100" height="100" relative="1" as="geometry">
            <mxPoint x="345" y="300" as="sourcePoint" />
            <mxPoint x="220" y="158" as="targetPoint" />
          </mxGeometry>
        </mxCell>
      </root>
    </mxGraphModel>
  </diagram>
  <diagram id="mK0uCtnewsE2D454T2Zx" name="Page-2">
    <mxGraphModel dx="2117" dy="669" grid="1" gridSize="10" guides="1" tooltips="1" connect="1" arrows="1" fold="1" page="1" pageScale="1" pageWidth="827" pageHeight="1169" math="0" shadow="0">
      <root>
        <mxCell id="0" />
        <mxCell id="1" parent="0" />
        <mxCell id="kcDedUGQy8JT78Zr1TCI-2" value="warga_sekitar" style="rounded=0;whiteSpace=wrap;html=1;" parent="1" vertex="1">
          <mxGeometry x="-150" y="227.5" width="120" height="60" as="geometry" />
        </mxCell>
        <mxCell id="kcDedUGQy8JT78Zr1TCI-3" value="programmer" style="rounded=0;whiteSpace=wrap;html=1;" parent="1" vertex="1">
          <mxGeometry x="570" y="55" width="120" height="60" as="geometry" />
        </mxCell>
        <mxCell id="kcDedUGQy8JT78Zr1TCI-4" value="developer" style="rounded=0;whiteSpace=wrap;html=1;" parent="1" vertex="1">
          <mxGeometry x="400" y="345" width="120" height="60" as="geometry" />
        </mxCell>
        <mxCell id="5zZ9MaA2hne17XJPupej-2" value="pemda" style="rounded=0;whiteSpace=wrap;html=1;" parent="1" vertex="1">
          <mxGeometry x="-110" y="480" width="120" height="60" as="geometry" />
        </mxCell>
        <mxCell id="Imjlgx1DnPCAoSrAMYVC-1" value="melaporkan" style="rhombus;whiteSpace=wrap;html=1;" parent="1" vertex="1">
          <mxGeometry x="50" y="210" width="100" height="95" as="geometry" />
        </mxCell>
        <mxCell id="LVPD9G9ISM0fdqhEVDZP-1" value="input data" style="rhombus;whiteSpace=wrap;html=1;" parent="1" vertex="1">
          <mxGeometry x="254" y="730" width="160" height="90" as="geometry" />
        </mxCell>
        <mxCell id="JsY1deLNoFKHKnQixIBm-21" value="data_laporan" style="rounded=0;whiteSpace=wrap;html=1;" parent="1" vertex="1">
          <mxGeometry x="40" y="345" width="120" height="60" as="geometry" />
        </mxCell>
        <mxCell id="JsY1deLNoFKHKnQixIBm-23" value="data_baru" style="rounded=0;whiteSpace=wrap;html=1;" parent="1" vertex="1">
          <mxGeometry x="200" y="480" width="120" height="60" as="geometry" />
        </mxCell>
        <mxCell id="JsY1deLNoFKHKnQixIBm-24" value="maintenance" style="rounded=0;whiteSpace=wrap;html=1;" parent="1" vertex="1">
          <mxGeometry x="570" y="245" width="120" height="60" as="geometry" />
        </mxCell>
        <mxCell id="JsY1deLNoFKHKnQixIBm-25" value="surat_penyuluhan" style="rounded=0;whiteSpace=wrap;html=1;" parent="1" vertex="1">
          <mxGeometry x="-390" y="480" width="120" height="60" as="geometry" />
        </mxCell>
        <mxCell id="JsY1deLNoFKHKnQixIBm-27" value="" style="endArrow=none;html=1;rounded=0;entryX=0;entryY=0.5;entryDx=0;entryDy=0;exitX=1;exitY=0.5;exitDx=0;exitDy=0;" parent="1" source="kcDedUGQy8JT78Zr1TCI-2" target="Imjlgx1DnPCAoSrAMYVC-1" edge="1">
          <mxGeometry relative="1" as="geometry">
            <mxPoint x="-70" y="288" as="sourcePoint" />
            <mxPoint x="360" y="230" as="targetPoint" />
          </mxGeometry>
        </mxCell>
        <mxCell id="JsY1deLNoFKHKnQixIBm-28" value="" style="endArrow=none;html=1;rounded=0;exitX=0.5;exitY=1;exitDx=0;exitDy=0;" parent="1" source="Imjlgx1DnPCAoSrAMYVC-1" target="JsY1deLNoFKHKnQixIBm-21" edge="1">
          <mxGeometry relative="1" as="geometry">
            <mxPoint x="110" y="130" as="sourcePoint" />
            <mxPoint x="110" y="220" as="targetPoint" />
          </mxGeometry>
        </mxCell>
        <mxCell id="JsY1deLNoFKHKnQixIBm-29" value="diterima" style="rhombus;whiteSpace=wrap;html=1;" parent="1" vertex="1">
          <mxGeometry x="210" y="330" width="160" height="90" as="geometry" />
        </mxCell>
        <mxCell id="JsY1deLNoFKHKnQixIBm-35" value="" style="endArrow=none;html=1;rounded=0;exitX=1;exitY=0.5;exitDx=0;exitDy=0;entryX=0;entryY=0.5;entryDx=0;entryDy=0;" parent="1" source="JsY1deLNoFKHKnQixIBm-29" target="kcDedUGQy8JT78Zr1TCI-4" edge="1">
          <mxGeometry relative="1" as="geometry">
            <mxPoint x="620" y="470" as="sourcePoint" />
            <mxPoint x="620" y="530" as="targetPoint" />
          </mxGeometry>
        </mxCell>
        <mxCell id="JsY1deLNoFKHKnQixIBm-36" value="mengolah" style="rhombus;whiteSpace=wrap;html=1;" parent="1" vertex="1">
          <mxGeometry x="409.5" y="467.5" width="101" height="85" as="geometry" />
        </mxCell>
        <mxCell id="JsY1deLNoFKHKnQixIBm-38" value="" style="endArrow=none;html=1;rounded=0;exitX=0;exitY=0.5;exitDx=0;exitDy=0;entryX=1;entryY=0.5;entryDx=0;entryDy=0;" parent="1" source="JsY1deLNoFKHKnQixIBm-36" target="JsY1deLNoFKHKnQixIBm-23" edge="1">
          <mxGeometry relative="1" as="geometry">
            <mxPoint x="510" y="430" as="sourcePoint" />
            <mxPoint x="510" y="470" as="targetPoint" />
          </mxGeometry>
        </mxCell>
        <mxCell id="JsY1deLNoFKHKnQixIBm-39" value="sungai" style="rounded=0;whiteSpace=wrap;html=1;" parent="1" vertex="1">
          <mxGeometry x="-390" y="100" width="120" height="60" as="geometry" />
        </mxCell>
        <mxCell id="JsY1deLNoFKHKnQixIBm-41" value="pengumpulan data" style="rhombus;whiteSpace=wrap;html=1;" parent="1" vertex="1">
          <mxGeometry x="-170" y="85" width="160" height="90" as="geometry" />
        </mxCell>
        <mxCell id="JsY1deLNoFKHKnQixIBm-42" value="" style="endArrow=none;html=1;rounded=0;exitX=0.5;exitY=1;exitDx=0;exitDy=0;entryX=0.5;entryY=0;entryDx=0;entryDy=0;" parent="1" source="JsY1deLNoFKHKnQixIBm-41" target="kcDedUGQy8JT78Zr1TCI-2" edge="1">
          <mxGeometry relative="1" as="geometry">
            <mxPoint x="90" y="50" as="sourcePoint" />
            <mxPoint x="40" y="130" as="targetPoint" />
          </mxGeometry>
        </mxCell>
        <mxCell id="JsY1deLNoFKHKnQixIBm-45" value="" style="endArrow=none;html=1;rounded=0;exitX=1;exitY=0.5;exitDx=0;exitDy=0;entryX=0;entryY=0.5;entryDx=0;entryDy=0;" parent="1" source="JsY1deLNoFKHKnQixIBm-39" target="JsY1deLNoFKHKnQixIBm-41" edge="1">
          <mxGeometry relative="1" as="geometry">
            <mxPoint x="5" y="140" as="sourcePoint" />
            <mxPoint x="50" y="140" as="targetPoint" />
          </mxGeometry>
        </mxCell>
        <mxCell id="JsY1deLNoFKHKnQixIBm-46" value="" style="endArrow=none;html=1;rounded=0;exitX=1;exitY=0.5;exitDx=0;exitDy=0;entryX=0;entryY=0.5;entryDx=0;entryDy=0;" parent="1" source="JsY1deLNoFKHKnQixIBm-21" target="JsY1deLNoFKHKnQixIBm-29" edge="1">
          <mxGeometry relative="1" as="geometry">
            <mxPoint x="650" y="430" as="sourcePoint" />
            <mxPoint x="650" y="520" as="targetPoint" />
          </mxGeometry>
        </mxCell>
        <mxCell id="JsY1deLNoFKHKnQixIBm-47" value="meminta" style="rhombus;whiteSpace=wrap;html=1;" parent="1" vertex="1">
          <mxGeometry x="570" y="340" width="120" height="70" as="geometry" />
        </mxCell>
        <mxCell id="JsY1deLNoFKHKnQixIBm-49" value="" style="endArrow=none;html=1;rounded=0;exitX=0.5;exitY=1;exitDx=0;exitDy=0;entryX=0.5;entryY=0;entryDx=0;entryDy=0;" parent="1" source="JsY1deLNoFKHKnQixIBm-24" target="JsY1deLNoFKHKnQixIBm-47" edge="1">
          <mxGeometry relative="1" as="geometry">
            <mxPoint x="640" y="420" as="sourcePoint" />
            <mxPoint x="640" y="460" as="targetPoint" />
          </mxGeometry>
        </mxCell>
        <mxCell id="JsY1deLNoFKHKnQixIBm-50" value="" style="endArrow=none;html=1;rounded=0;entryX=0.5;entryY=1;entryDx=0;entryDy=0;" parent="1" source="JsY1deLNoFKHKnQixIBm-51" target="kcDedUGQy8JT78Zr1TCI-3" edge="1">
          <mxGeometry relative="1" as="geometry">
            <mxPoint x="890" y="305" as="sourcePoint" />
            <mxPoint x="830" y="330" as="targetPoint" />
          </mxGeometry>
        </mxCell>
        <mxCell id="JsY1deLNoFKHKnQixIBm-51" value="melakukan" style="rhombus;whiteSpace=wrap;html=1;" parent="1" vertex="1">
          <mxGeometry x="570" y="145" width="120" height="70" as="geometry" />
        </mxCell>
        <mxCell id="JsY1deLNoFKHKnQixIBm-52" value="" style="endArrow=none;html=1;rounded=0;exitX=0.5;exitY=1;exitDx=0;exitDy=0;entryX=0.5;entryY=0;entryDx=0;entryDy=0;" parent="1" source="JsY1deLNoFKHKnQixIBm-51" target="JsY1deLNoFKHKnQixIBm-24" edge="1">
          <mxGeometry relative="1" as="geometry">
            <mxPoint x="640" y="315" as="sourcePoint" />
            <mxPoint x="640" y="350" as="targetPoint" />
          </mxGeometry>
        </mxCell>
        <mxCell id="JsY1deLNoFKHKnQixIBm-53" value="" style="endArrow=none;html=1;rounded=0;entryX=0.5;entryY=1;entryDx=0;entryDy=0;" parent="1" source="JsY1deLNoFKHKnQixIBm-36" target="kcDedUGQy8JT78Zr1TCI-4" edge="1">
          <mxGeometry relative="1" as="geometry">
            <mxPoint x="389" y="520" as="sourcePoint" />
            <mxPoint x="180" y="520" as="targetPoint" />
          </mxGeometry>
        </mxCell>
        <mxCell id="JsY1deLNoFKHKnQixIBm-54" value="" style="endArrow=none;html=1;rounded=0;exitX=0;exitY=0.5;exitDx=0;exitDy=0;entryX=1;entryY=0.5;entryDx=0;entryDy=0;" parent="1" source="JsY1deLNoFKHKnQixIBm-47" target="kcDedUGQy8JT78Zr1TCI-4" edge="1">
          <mxGeometry relative="1" as="geometry">
            <mxPoint x="640" y="310" as="sourcePoint" />
            <mxPoint x="640" y="345" as="targetPoint" />
          </mxGeometry>
        </mxCell>
        <mxCell id="JsY1deLNoFKHKnQixIBm-55" value="dikirim" style="rhombus;whiteSpace=wrap;html=1;" parent="1" vertex="1">
          <mxGeometry x="53" y="467.5" width="101" height="85" as="geometry" />
        </mxCell>
        <mxCell id="JsY1deLNoFKHKnQixIBm-56" value="" style="endArrow=none;html=1;rounded=0;exitX=1;exitY=0.5;exitDx=0;exitDy=0;entryX=0;entryY=0.5;entryDx=0;entryDy=0;" parent="1" source="JsY1deLNoFKHKnQixIBm-55" target="JsY1deLNoFKHKnQixIBm-23" edge="1">
          <mxGeometry relative="1" as="geometry">
            <mxPoint x="420" y="520" as="sourcePoint" />
            <mxPoint x="330" y="520" as="targetPoint" />
          </mxGeometry>
        </mxCell>
        <mxCell id="JsY1deLNoFKHKnQixIBm-57" value="" style="endArrow=none;html=1;rounded=0;exitX=1;exitY=0.5;exitDx=0;exitDy=0;entryX=0;entryY=0.5;entryDx=0;entryDy=0;" parent="1" source="5zZ9MaA2hne17XJPupej-2" target="JsY1deLNoFKHKnQixIBm-55" edge="1">
          <mxGeometry relative="1" as="geometry">
            <mxPoint x="160" y="520" as="sourcePoint" />
            <mxPoint x="210" y="520" as="targetPoint" />
          </mxGeometry>
        </mxCell>
        <mxCell id="JsY1deLNoFKHKnQixIBm-58" value="membuat" style="rhombus;whiteSpace=wrap;html=1;" parent="1" vertex="1">
          <mxGeometry x="-240" y="467.5" width="101" height="85" as="geometry" />
        </mxCell>
        <mxCell id="JsY1deLNoFKHKnQixIBm-59" value="" style="endArrow=none;html=1;rounded=0;exitX=1;exitY=0.5;exitDx=0;exitDy=0;entryX=0;entryY=0.5;entryDx=0;entryDy=0;" parent="1" source="JsY1deLNoFKHKnQixIBm-58" target="5zZ9MaA2hne17XJPupej-2" edge="1">
          <mxGeometry relative="1" as="geometry">
            <mxPoint x="20" y="520" as="sourcePoint" />
            <mxPoint x="69" y="520" as="targetPoint" />
          </mxGeometry>
        </mxCell>
        <mxCell id="JsY1deLNoFKHKnQixIBm-60" value="" style="endArrow=none;html=1;rounded=0;exitX=1;exitY=0.5;exitDx=0;exitDy=0;" parent="1" source="JsY1deLNoFKHKnQixIBm-25" edge="1">
          <mxGeometry relative="1" as="geometry">
            <mxPoint x="-129" y="520" as="sourcePoint" />
            <mxPoint x="-240" y="510" as="targetPoint" />
          </mxGeometry>
        </mxCell>
        <mxCell id="JsY1deLNoFKHKnQixIBm-61" value="" style="endArrow=none;html=1;rounded=0;exitX=0.5;exitY=0;exitDx=0;exitDy=0;entryX=0.5;entryY=1;entryDx=0;entryDy=0;" parent="1" source="JsY1deLNoFKHKnQixIBm-25" target="JsY1deLNoFKHKnQixIBm-62" edge="1">
          <mxGeometry relative="1" as="geometry">
            <mxPoint x="110" y="315" as="sourcePoint" />
            <mxPoint x="-270" y="360" as="targetPoint" />
          </mxGeometry>
        </mxCell>
        <mxCell id="JsY1deLNoFKHKnQixIBm-62" value="diterima" style="rhombus;whiteSpace=wrap;html=1;" parent="1" vertex="1">
          <mxGeometry x="-380.5" y="215" width="101" height="85" as="geometry" />
        </mxCell>
        <mxCell id="JsY1deLNoFKHKnQixIBm-63" value="" style="endArrow=none;html=1;rounded=0;exitX=1;exitY=0.5;exitDx=0;exitDy=0;entryX=0;entryY=0.5;entryDx=0;entryDy=0;" parent="1" source="JsY1deLNoFKHKnQixIBm-62" target="kcDedUGQy8JT78Zr1TCI-2" edge="1">
          <mxGeometry relative="1" as="geometry">
            <mxPoint x="-320" y="490" as="sourcePoint" />
            <mxPoint x="-320" y="375" as="targetPoint" />
          </mxGeometry>
        </mxCell>
      </root>
    </mxGraphModel>
  </diagram>
</mxfile>
